<mxfile host="app.diagrams.net" modified="2020-05-15T02:13:11.793Z" agent="5.0 (Windows NT 10.0; Win64; x64) AppleWebKit/537.36 (KHTML, like Gecko) Chrome/80.0.3987.122 Safari/537.36" etag="1IWgIL-25FO9kMppN0FU" version="13.1.1" type="github" pages="3">
  <diagram id="pZlwiiWU9EnTo31YHlz6" name="Web Page">
    <mxGraphModel dx="981" dy="548" grid="0" gridSize="10" guides="1" tooltips="1" connect="1" arrows="1" fold="1" page="1" pageScale="1" pageWidth="827" pageHeight="1169" math="0" shadow="0">
      <root>
        <mxCell id="0" />
        <mxCell id="1" parent="0" />
        <mxCell id="Z9tO0M36dYPefLi1LPq8-20" value="" style="rounded=0;whiteSpace=wrap;html=1;dashed=1;" vertex="1" parent="1">
          <mxGeometry x="710" y="195.5" width="176" height="195" as="geometry" />
        </mxCell>
        <mxCell id="Z9tO0M36dYPefLi1LPq8-1" value="NRLinkWeb" style="rounded=1;whiteSpace=wrap;html=1;fillColor=#f8cecc;strokeColor=#b85450;" vertex="1" parent="1">
          <mxGeometry x="631" y="34" width="120" height="36" as="geometry" />
        </mxCell>
        <mxCell id="Z9tO0M36dYPefLi1LPq8-9" style="edgeStyle=orthogonalEdgeStyle;rounded=0;orthogonalLoop=1;jettySize=auto;html=1;" edge="1" parent="1" source="Z9tO0M36dYPefLi1LPq8-2" target="Z9tO0M36dYPefLi1LPq8-7">
          <mxGeometry relative="1" as="geometry" />
        </mxCell>
        <mxCell id="Z9tO0M36dYPefLi1LPq8-10" style="edgeStyle=orthogonalEdgeStyle;rounded=0;orthogonalLoop=1;jettySize=auto;html=1;" edge="1" parent="1" source="Z9tO0M36dYPefLi1LPq8-2" target="Z9tO0M36dYPefLi1LPq8-8">
          <mxGeometry relative="1" as="geometry" />
        </mxCell>
        <mxCell id="Z9tO0M36dYPefLi1LPq8-2" value="Login" style="ellipse;whiteSpace=wrap;html=1;" vertex="1" parent="1">
          <mxGeometry x="284" y="269" width="89" height="48" as="geometry" />
        </mxCell>
        <mxCell id="Z9tO0M36dYPefLi1LPq8-16" style="edgeStyle=orthogonalEdgeStyle;rounded=0;orthogonalLoop=1;jettySize=auto;html=1;" edge="1" parent="1" source="Z9tO0M36dYPefLi1LPq8-7" target="Z9tO0M36dYPefLi1LPq8-13">
          <mxGeometry relative="1" as="geometry" />
        </mxCell>
        <mxCell id="Z9tO0M36dYPefLi1LPq8-7" value="加入会议" style="rounded=1;whiteSpace=wrap;html=1;" vertex="1" parent="1">
          <mxGeometry x="441" y="253.5" width="120" height="32" as="geometry" />
        </mxCell>
        <mxCell id="Z9tO0M36dYPefLi1LPq8-15" style="edgeStyle=orthogonalEdgeStyle;rounded=0;orthogonalLoop=1;jettySize=auto;html=1;" edge="1" parent="1" source="Z9tO0M36dYPefLi1LPq8-8" target="Z9tO0M36dYPefLi1LPq8-13">
          <mxGeometry relative="1" as="geometry" />
        </mxCell>
        <mxCell id="Z9tO0M36dYPefLi1LPq8-8" value="创建会议" style="rounded=1;whiteSpace=wrap;html=1;" vertex="1" parent="1">
          <mxGeometry x="441" y="300.5" width="120" height="32" as="geometry" />
        </mxCell>
        <mxCell id="Z9tO0M36dYPefLi1LPq8-12" style="edgeStyle=orthogonalEdgeStyle;rounded=0;orthogonalLoop=1;jettySize=auto;html=1;" edge="1" parent="1" source="Z9tO0M36dYPefLi1LPq8-11" target="Z9tO0M36dYPefLi1LPq8-2">
          <mxGeometry relative="1" as="geometry" />
        </mxCell>
        <mxCell id="Z9tO0M36dYPefLi1LPq8-11" value="Actor" style="shape=umlActor;verticalLabelPosition=bottom;labelBackgroundColor=#ffffff;verticalAlign=top;html=1;outlineConnect=0;" vertex="1" parent="1">
          <mxGeometry x="213" y="263" width="30" height="60" as="geometry" />
        </mxCell>
        <mxCell id="Z9tO0M36dYPefLi1LPq8-36" style="edgeStyle=orthogonalEdgeStyle;rounded=0;orthogonalLoop=1;jettySize=auto;html=1;" edge="1" parent="1" source="Z9tO0M36dYPefLi1LPq8-13" target="Z9tO0M36dYPefLi1LPq8-20">
          <mxGeometry relative="1" as="geometry" />
        </mxCell>
        <mxCell id="Z9tO0M36dYPefLi1LPq8-13" value="进入会议" style="triangle;whiteSpace=wrap;html=1;" vertex="1" parent="1">
          <mxGeometry x="609" y="253" width="74" height="80" as="geometry" />
        </mxCell>
        <mxCell id="Z9tO0M36dYPefLi1LPq8-17" value="参会者列表" style="rounded=1;whiteSpace=wrap;html=1;" vertex="1" parent="1">
          <mxGeometry x="741" y="215" width="120" height="39" as="geometry" />
        </mxCell>
        <mxCell id="Z9tO0M36dYPefLi1LPq8-18" value="聊天窗口" style="rounded=1;whiteSpace=wrap;html=1;" vertex="1" parent="1">
          <mxGeometry x="741" y="268" width="120" height="39" as="geometry" />
        </mxCell>
        <mxCell id="Z9tO0M36dYPefLi1LPq8-29" style="edgeStyle=orthogonalEdgeStyle;rounded=0;orthogonalLoop=1;jettySize=auto;html=1;entryX=0;entryY=0.5;entryDx=0;entryDy=0;" edge="1" parent="1" source="Z9tO0M36dYPefLi1LPq8-19" target="Z9tO0M36dYPefLi1LPq8-24">
          <mxGeometry relative="1" as="geometry" />
        </mxCell>
        <mxCell id="Z9tO0M36dYPefLi1LPq8-30" style="edgeStyle=orthogonalEdgeStyle;rounded=0;orthogonalLoop=1;jettySize=auto;html=1;entryX=0;entryY=0.5;entryDx=0;entryDy=0;" edge="1" parent="1" source="Z9tO0M36dYPefLi1LPq8-19" target="Z9tO0M36dYPefLi1LPq8-25">
          <mxGeometry relative="1" as="geometry" />
        </mxCell>
        <mxCell id="Z9tO0M36dYPefLi1LPq8-31" style="edgeStyle=orthogonalEdgeStyle;rounded=0;orthogonalLoop=1;jettySize=auto;html=1;entryX=0;entryY=0.5;entryDx=0;entryDy=0;" edge="1" parent="1" source="Z9tO0M36dYPefLi1LPq8-19" target="Z9tO0M36dYPefLi1LPq8-26">
          <mxGeometry relative="1" as="geometry" />
        </mxCell>
        <mxCell id="Z9tO0M36dYPefLi1LPq8-32" style="edgeStyle=orthogonalEdgeStyle;rounded=0;orthogonalLoop=1;jettySize=auto;html=1;entryX=0;entryY=0.5;entryDx=0;entryDy=0;" edge="1" parent="1" source="Z9tO0M36dYPefLi1LPq8-19" target="Z9tO0M36dYPefLi1LPq8-27">
          <mxGeometry relative="1" as="geometry" />
        </mxCell>
        <mxCell id="Z9tO0M36dYPefLi1LPq8-33" style="edgeStyle=orthogonalEdgeStyle;rounded=0;orthogonalLoop=1;jettySize=auto;html=1;entryX=0;entryY=0.5;entryDx=0;entryDy=0;" edge="1" parent="1" source="Z9tO0M36dYPefLi1LPq8-19" target="Z9tO0M36dYPefLi1LPq8-21">
          <mxGeometry relative="1" as="geometry" />
        </mxCell>
        <mxCell id="Z9tO0M36dYPefLi1LPq8-34" style="edgeStyle=orthogonalEdgeStyle;rounded=0;orthogonalLoop=1;jettySize=auto;html=1;entryX=0;entryY=0.5;entryDx=0;entryDy=0;" edge="1" parent="1" source="Z9tO0M36dYPefLi1LPq8-19" target="Z9tO0M36dYPefLi1LPq8-23">
          <mxGeometry relative="1" as="geometry" />
        </mxCell>
        <mxCell id="Z9tO0M36dYPefLi1LPq8-19" value="功能区域" style="rounded=1;whiteSpace=wrap;html=1;" vertex="1" parent="1">
          <mxGeometry x="741" y="321" width="120" height="39" as="geometry" />
        </mxCell>
        <mxCell id="Z9tO0M36dYPefLi1LPq8-21" value="静音" style="rounded=1;whiteSpace=wrap;html=1;" vertex="1" parent="1">
          <mxGeometry x="861" y="421" width="120" height="39" as="geometry" />
        </mxCell>
        <mxCell id="Z9tO0M36dYPefLi1LPq8-23" value="视频" style="rounded=1;whiteSpace=wrap;html=1;" vertex="1" parent="1">
          <mxGeometry x="861" y="469.5" width="120" height="39" as="geometry" />
        </mxCell>
        <mxCell id="Z9tO0M36dYPefLi1LPq8-24" value="请求共享" style="rounded=1;whiteSpace=wrap;html=1;" vertex="1" parent="1">
          <mxGeometry x="861" y="516.5" width="120" height="39" as="geometry" />
        </mxCell>
        <mxCell id="Z9tO0M36dYPefLi1LPq8-25" value="邀请" style="rounded=1;whiteSpace=wrap;html=1;" vertex="1" parent="1">
          <mxGeometry x="861" y="563.5" width="120" height="39" as="geometry" />
        </mxCell>
        <mxCell id="Z9tO0M36dYPefLi1LPq8-26" value="管理成员" style="rounded=1;whiteSpace=wrap;html=1;" vertex="1" parent="1">
          <mxGeometry x="861" y="610.5" width="120" height="39" as="geometry" />
        </mxCell>
        <mxCell id="Z9tO0M36dYPefLi1LPq8-27" value="结束会议" style="rounded=1;whiteSpace=wrap;html=1;" vertex="1" parent="1">
          <mxGeometry x="861" y="657.5" width="120" height="39" as="geometry" />
        </mxCell>
      </root>
    </mxGraphModel>
  </diagram>
  <diagram id="zA1MlgJUPMxcJEkgJiVI" name="NRLink Service">
    <mxGraphModel dx="1422" dy="794" grid="1" gridSize="10" guides="1" tooltips="1" connect="1" arrows="1" fold="1" page="1" pageScale="1" pageWidth="827" pageHeight="1169" math="0" shadow="0">
      <root>
        <mxCell id="ZVYZZeILcZAVwWiOdu8t-0" />
        <mxCell id="ZVYZZeILcZAVwWiOdu8t-1" parent="ZVYZZeILcZAVwWiOdu8t-0" />
      </root>
    </mxGraphModel>
  </diagram>
  <diagram id="rcwaZa56jW2T5E4xLFoI" name="DB Model">
    <mxGraphModel dx="1422" dy="794" grid="1" gridSize="10" guides="1" tooltips="1" connect="1" arrows="1" fold="1" page="1" pageScale="1" pageWidth="827" pageHeight="1169" math="0" shadow="0">
      <root>
        <mxCell id="F4rDVr2kXNfF9ILrsygu-0" />
        <mxCell id="F4rDVr2kXNfF9ILrsygu-1" parent="F4rDVr2kXNfF9ILrsygu-0" />
      </root>
    </mxGraphModel>
  </diagram>
</mxfile>
